<?xml version="1.0" encoding="UTF-8"?>
<svg version="1.1" xmlns="http://www.w3.org/2000/svg" width="316" height="310">
<path d="M0 0 C2.21948762 -0.00067637 4.43897516 -0.00164914 6.65846252 -0.00289917 C11.26604939 -0.00435836 15.87361662 -0.00227824 20.48120117 0.00244141 C26.3464357 0.00816129 32.21162467 0.00483405 38.07685757 -0.00113106 C42.64368526 -0.00476503 47.21050236 -0.00358551 51.7773304 -0.00100327 C53.93918933 -0.00034305 56.10104927 -0.00113019 58.26290703 -0.00348282 C86.05080357 -0.02711949 111.65662169 1.13377197 133.453125 20.51171875 C150.26123739 37.37007961 156.2240118 59.64233887 156.21166992 82.82080078 C156.21670784 84.20577507 156.21670784 84.20577507 156.22184753 85.61872864 C156.23128312 88.64687476 156.23329711 91.67496512 156.234375 94.703125 C156.23759341 96.82909161 156.24095791 98.95505801 156.24446106 101.08102417 C156.25043438 105.53090935 156.25230288 109.98077516 156.25170898 114.43066406 C156.25160763 120.0956489 156.26524075 125.76050767 156.28248119 131.42546272 C156.29367443 135.81646276 156.29562593 140.20743306 156.29509926 144.59844589 C156.2962691 146.68494983 156.30063399 148.77145479 156.30843163 150.85794449 C156.40055439 178.06007455 153.056457 200.92278706 133.71484375 221.5390625 C126.9820689 228.1328125 126.9820689 228.1328125 124.06640625 228.1328125 C124.10121094 229.43734375 124.13601563 230.741875 124.171875 232.0859375 C124.63846991 256.32565893 124.63846991 256.32565893 117.00390625 265.6328125 C111.16671785 271.49829099 105.14899045 274.12103073 96.94140625 274.8828125 C80.6735495 274.05144413 63.35028273 259.40665014 49.60986328 251.24755859 C49.04698608 250.92541885 48.48410889 250.60327911 47.9041748 250.27137756 C46.06640625 249.1328125 46.06640625 249.1328125 44.06750488 247.5712738 C35.90241254 241.65533255 27.27151775 242.32772984 17.64453125 242.43359375 C15.85389351 242.42995205 14.06325966 242.42323787 12.27264404 242.41362 C7.57607292 242.39462976 2.88024504 242.40850109 -1.81628418 242.43212891 C-9.31617166 242.46661262 -16.81587074 242.4604769 -24.31577301 242.4359951 C-26.91136648 242.43365602 -29.50624143 242.45129358 -32.10174561 242.4712677 C-54.60376218 242.53249565 -73.94459698 236.16685614 -90.58984375 220.49609375 C-105.80533454 205.15380721 -112.06994892 185.98514577 -112.09472656 164.64624023 C-112.09969147 163.61432053 -112.10465637 162.58240082 -112.10977173 161.51921082 C-112.12432942 158.11826906 -112.13118567 154.717374 -112.13671875 151.31640625 C-112.13954613 150.14878313 -112.1423735 148.98116001 -112.14528656 147.77815437 C-112.16025563 141.59583435 -112.16949874 135.41353752 -112.17382812 129.23120117 C-112.17930082 122.87548013 -112.20331023 116.51997461 -112.23180008 110.16432095 C-112.25051713 105.25093487 -112.25563693 100.33759969 -112.257164 95.42418098 C-112.26017199 93.08285409 -112.26813707 90.74152768 -112.28134918 88.40023613 C-112.4048259 64.83182353 -112.4048259 64.83182353 -108.93359375 53.1328125 C-108.7109938 52.38231628 -108.48839386 51.63182007 -108.25904846 50.85858154 C-102.4525034 33.09513866 -89.546655 17.76708379 -72.93359375 9.1328125 C-60.97705374 3.60045644 -49.023979 1.09845498 -35.95678711 0.56298828 C-34.99932303 0.52200579 -34.04185896 0.48102329 -33.05538082 0.4387989 C-22.03801102 0.00494485 -11.02428648 -0.01208919 0 0 Z M-69.14453125 48.953125 C-77.30160822 58.89122315 -79.08558372 69.93390185 -79.07885742 82.44189453 C-79.08221603 83.34862411 -79.08557465 84.2553537 -79.08903503 85.18955994 C-79.09849654 88.17326242 -79.10048598 91.15690846 -79.1015625 94.140625 C-79.10477929 96.22940086 -79.10814368 98.3181765 -79.11164856 100.4069519 C-79.11762847 104.78302533 -79.11948972 109.15907903 -79.11889648 113.53515625 C-79.11879513 119.11295828 -79.13242482 124.69063225 -79.14966869 130.26840401 C-79.16084923 134.58383756 -79.16281381 138.8992408 -79.16228676 143.21468735 C-79.16345863 145.26935134 -79.16783532 147.32401634 -79.17561913 149.37866592 C-79.34804607 175.82986947 -79.34804607 175.82986947 -66.15625 198.09375 C-54.27811614 208.99073748 -40.14500188 209.56449383 -24.8584404 209.48237228 C-22.02328823 209.46846178 -19.18882253 209.47517062 -16.35366821 209.48721313 C-8.30213605 209.5179428 -0.25077296 209.51329496 7.80078125 209.49316406 C12.74907266 209.48220535 17.69684243 209.49551566 22.64506149 209.52305984 C24.51798559 209.52846984 26.39096286 209.5245153 28.26384354 209.51066208 C46.78110875 209.37518634 46.78110875 209.37518634 55.06640625 215.1328125 C55.97358398 215.66680664 56.88076172 216.20080078 57.81542969 216.75097656 C58.5118457 217.21213867 59.20826172 217.67330078 59.92578125 218.1484375 C60.72508057 218.67348877 61.52437988 219.19854004 62.34790039 219.73950195 C63.16250732 220.28179443 63.97711426 220.82408691 64.81640625 221.3828125 C66.55984616 222.52741941 68.30333605 223.6719502 70.046875 224.81640625 C72.46449434 226.4120626 74.88072495 228.00977068 77.29541016 229.60986328 C79.2363274 230.89389692 81.18215809 232.17014538 83.12890625 233.4453125 C84.21300781 234.16332031 85.29710937 234.88132812 86.4140625 235.62109375 C88.99198586 237.38039954 88.99198586 237.38039954 92.06640625 237.1328125 C92.08622559 236.33584961 92.10604492 235.53888672 92.12646484 234.71777344 C92.22173873 231.10578778 92.33140932 227.49437851 92.44140625 223.8828125 C92.4878125 222.00142578 92.4878125 222.00142578 92.53515625 220.08203125 C92.59316406 218.27412109 92.59316406 218.27412109 92.65234375 216.4296875 C92.68376465 215.31948242 92.71518555 214.20927734 92.74755859 213.06542969 C93.05772469 210.21266157 93.5037187 208.51470934 95.06640625 206.1328125 C97.1328125 204.9296875 97.1328125 204.9296875 99.62890625 203.8828125 C109.0752631 199.39817844 115.75935663 192.66412557 120.06640625 183.1328125 C123.80909232 171.3988624 123.49012758 159.50756593 123.4296875 147.3359375 C123.42916759 145.24997966 123.42969033 143.16402133 123.43119812 141.07806396 C123.43110896 136.73116633 123.42079154 132.38445632 123.40258789 128.03759766 C123.37984617 122.48769958 123.37937307 116.93807355 123.38610554 111.38814163 C123.38945779 107.08998224 123.38279272 102.79188402 123.3729763 98.49373627 C123.36914994 96.4477648 123.36796535 94.4017865 123.36956215 92.35581207 C123.36993606 89.49261142 123.35722389 86.62975073 123.34106445 83.76660156 C123.34354187 82.93622879 123.34601929 82.10585602 123.34857178 81.25032043 C123.22854532 67.81819061 119.49250363 55.9531573 110.06640625 46.1328125 C98.93459773 36.89806459 89.12350287 34.98553035 74.94921875 34.97167969 C73.73212723 34.96671478 72.51503571 34.96174988 71.26106262 34.95663452 C67.93205564 34.94455909 64.60311121 34.93707572 61.27408981 34.93262386 C59.18777959 34.92968239 57.10147474 34.92557547 55.01516724 34.92111969 C48.46910409 34.90745545 41.92305337 34.8977852 35.37697697 34.8939178 C27.8557104 34.88944833 20.33462658 34.87194787 12.81341553 34.8429172 C6.97787618 34.82118626 1.14238779 34.81120738 -4.69319153 34.80987668 C-8.16782683 34.80883619 -11.64229013 34.80309269 -15.11688232 34.78505707 C-19.00506257 34.76526688 -22.89302099 34.76991042 -26.78125 34.77636719 C-27.90903366 34.7671524 -29.03681732 34.75793762 -30.19877625 34.7484436 C-45.33303019 34.82654513 -58.52949097 37.74601076 -69.14453125 48.953125 Z " fill="#5AC461" transform="translate(135.93359375,23.8671875)"/>
<path d="M0 0 C5.51228785 4.64345089 9.63574149 11.4528834 10.6015625 18.640625 C10.79562887 27.19096116 9.17431088 33.50602691 3.36328125 39.94921875 C-3.29360021 46.13985948 -9.60879742 48.55810326 -18.70703125 48.28515625 C-26.67772771 47.22781896 -32.45784419 43.12669549 -37.36328125 36.90234375 C-42.02852629 30.1895745 -42.70479532 23.85982627 -41.76953125 15.87890625 C-39.57226049 8.12939218 -35.26461851 2.13817346 -28.26953125 -1.93359375 C-18.8854855 -7.03864681 -8.76513224 -5.78303638 0 0 Z " fill="#5BC361" transform="translate(216.76953125,114.12109375)"/>
<path d="M0 0 C7.03276292 5.03336586 11.41854599 10.96772997 13.11328125 19.44140625 C13.93266457 27.51384932 11.35977542 34.40934196 6.36328125 40.69140625 C0.77057752 46.85593256 -5.40401528 49.22110586 -13.57421875 50.12890625 C-21.12996825 49.79711685 -28.53458575 46.14950202 -33.63671875 40.69140625 C-38.25709239 33.64784753 -40.56876985 26.5322598 -39.2265625 18.12109375 C-37.2174982 10.2532611 -33.3511195 4.21161624 -26.51171875 -0.24609375 C-18.17502691 -5.18449554 -8.32275569 -4.65915031 0 0 Z " fill="#5BC362" transform="translate(128.63671875,112.30859375)"/>
</svg>
